<?xml version="1.0" standalone="no"?><!DOCTYPE svg PUBLIC "-//W3C//DTD SVG 1.1//EN" "http://www.w3.org/Graphics/SVG/1.1/DTD/svg11.dtd"><svg class="icon" width="32px" height="32.00px" viewBox="0 0 1024 1024" version="1.1" xmlns="http://www.w3.org/2000/svg"><path fill="#1296db" d="M780.629333 810.666667A777.386667 777.386667 0 0 1 256 286.037333L328.106667 256A699.562667 699.562667 0 0 0 810.666667 738.56L780.629333 810.666667z"  /><path fill="#1296db" d="M559.914667 698.368A789.248 789.248 0 0 0 791.893333 810.666667L853.333333 663.253333a630.229333 630.229333 0 0 1-162.133333-68.437333 2792.618667 2792.618667 0 0 1-131.285333 103.552z m-191.573334-191.573333A789.248 789.248 0 0 1 256 274.773333L403.413333 213.333333c15.36 57.813333 38.613333 112.426667 68.650667 162.517334a2776.746667 2776.746667 0 0 0-103.722667 130.986666z"  /></svg>