<?xml version="1.0" standalone="no"?><!DOCTYPE svg PUBLIC "-//W3C//DTD SVG 1.1//EN" "http://www.w3.org/Graphics/SVG/1.1/DTD/svg11.dtd"><svg class="icon" width="32px" height="32.00px" viewBox="0 0 1024 1024" version="1.1" xmlns="http://www.w3.org/2000/svg"><path fill="#1296db" d="M725.333333 512v-85.333333h85.333334v85.333333h85.333333v85.333333h-85.333333v85.333334h-85.333334v-85.333334h-85.333333v-85.333333h85.333333z m-128 284.330667L526.336 725.333333h-242.346667L213.333333 796.032V810.666667h384v-14.336z m84.949334-35.584H682.666667V896H128v-135.253333h0.085333L128 760.661333 248.661333 640l0.085334 0.085333V640h313.173333v0.256l120.448 120.405333-0.085333 0.085334zM405.333333 213.333333A149.333333 149.333333 0 0 1 554.666667 362.666667v85.333333a149.333333 149.333333 0 1 1-298.666667 0v-85.333333A149.333333 149.333333 0 0 1 405.333333 213.333333z m0 85.333334A64 64 0 0 0 341.333333 362.666667v85.333333a64 64 0 0 0 128 0v-85.333333A64 64 0 0 0 405.333333 298.666667z"  /></svg>