<?xml version="1.0" standalone="no"?><!DOCTYPE svg PUBLIC "-//W3C//DTD SVG 1.1//EN" "http://www.w3.org/Graphics/SVG/1.1/DTD/svg11.dtd"><svg class="icon" width="32px" height="32.00px" viewBox="0 0 1024 1024" version="1.1" xmlns="http://www.w3.org/2000/svg"><path fill="#1296db" d="M682.666667 796.330667L611.669333 725.333333h-242.346666L298.666667 796.032V810.666667h384v-14.336z m84.949333-35.584H768V896H213.333333v-135.253333h0.085334L213.333333 760.661333 333.994667 640l0.085333 0.085333V640h313.173333v0.256l120.448 120.405333-0.085333 0.085334zM682.666667 405.333333a192 192 0 1 1-384 0 192 192 0 0 1 384 0z m-85.333334 0a106.666667 106.666667 0 1 0-213.333333 0 106.666667 106.666667 0 0 0 213.333333 0z"  /></svg>